<?xml version="1.0" encoding="UTF-8"?> <svg xmlns="http://www.w3.org/2000/svg" width="1124" height="198" viewBox="0 0 1124 198" fill="none"> <path d="M36.1133 193V132.39H50.3233L92.0833 193H129.493V188.94L78.4533 118.18L128.913 55.8299V51.7699H91.7933L50.6133 106H36.1133V2.46991H0.15332V193H36.1133Z" fill="black"></path> <path d="M153.083 193H189.043V128.62V129.78C189.043 102.52 204.123 86.2799 229.353 86.2799H242.983V51.7699H229.353C207.893 51.7699 196.583 65.3999 190.493 85.1199H188.753V51.7699H153.083V193Z" fill="black"></path> <path d="M265.442 193H301.402V51.7699H265.442V193ZM263.412 31.7599H303.432V0.149902H263.412V31.7599Z" fill="black"></path> <path d="M337.448 193H407.338C433.148 193 447.358 177.63 447.358 150.08C447.358 121.95 433.148 106 407.338 106H374.568C368.188 106 363.258 101.36 363.258 94.3999C363.258 87.4399 368.188 82.2199 374.568 82.2199H436.338V51.7699H370.218C343.538 51.7699 328.748 66.8499 328.748 93.5299C328.748 120.79 343.538 135.87 370.218 135.87H401.248C407.918 135.87 412.848 141.38 412.848 149.21C412.848 156.75 407.918 162.55 401.248 162.55H337.448V193Z" fill="black"></path> <path d="M566.213 110.93V193H602.173V102.81C602.173 72.3599 584.483 49.1599 552.293 49.1599C534.023 49.1599 518.943 56.1199 509.663 74.3899H508.213V2.46991H472.253V193H508.213V123.11C508.213 98.4599 521.553 81.0599 540.693 81.0599C557.513 81.0599 566.213 94.3999 566.213 110.93Z" fill="black"></path> <path d="M696.022 197.06C716.612 197.06 732.562 187.49 740.392 174.44H741.842V193H776.932V51.7699H741.842V70.3299H740.392C732.562 58.1499 716.612 49.1599 696.022 49.1599C657.452 49.1599 626.712 80.7699 626.712 123.11C626.712 165.45 657.452 197.06 696.022 197.06ZM661.512 123.11C661.512 99.3299 678.622 81.6399 701.822 81.6399C724.732 81.6399 741.842 99.3299 741.842 122.82V123.11C741.842 146.89 724.732 164.58 701.822 164.58C678.622 164.58 661.512 146.89 661.512 123.11Z" fill="black"></path> <path d="M804.806 193H840.766V161.1H804.806V193Z" fill="black"></path> <path d="M903.565 193V132.39H917.774L959.534 193H996.945V188.94L945.904 118.18L996.365 55.8299V51.7699H959.245L918.065 106H903.565V2.46991H867.604V193H903.565Z" fill="black"></path> <path d="M1016.08 193H1123.96V162.55H1054.94L1123.96 82.2199V51.7699H1016.08V82.2199H1085.1L1016.08 162.55V193Z" fill="black"></path> </svg> 